<?xml version="1.0" encoding="UTF-8" standalone="no"?>
<!-- Created with Inkscape (http://www.inkscape.org/) -->

<svg
   xmlns:dc="http://purl.org/dc/elements/1.1/"
   xmlns:cc="http://creativecommons.org/ns#"
   xmlns:rdf="http://www.w3.org/1999/02/22-rdf-syntax-ns#"
   xmlns:svg="http://www.w3.org/2000/svg"
   xmlns="http://www.w3.org/2000/svg"
   xmlns:xlink="http://www.w3.org/1999/xlink"
   xmlns:sodipodi="http://sodipodi.sourceforge.net/DTD/sodipodi-0.dtd"
   xmlns:inkscape="http://www.inkscape.org/namespaces/inkscape"
   width="1052.3622"
   height="744.09448"
   id="svg2985"
   version="1.1"
   inkscape:version="0.48.4 r9939"
   sodipodi:docname="certificate_template.svg">
  <defs
     id="defs2987">
    <linearGradient
       id="linearGradient3891">
      <stop
         style="stop-color:#ffff0e;stop-opacity:1;"
         offset="0"
         id="stop3893" />
      <stop
         style="stop-color:#ffffff;stop-opacity:0;"
         offset="1"
         id="stop3895" />
    </linearGradient>
    <linearGradient
       inkscape:collect="always"
       id="linearGradient3883">
      <stop
         style="stop-color:#ff0000;stop-opacity:1;"
         offset="0"
         id="stop3885" />
      <stop
         style="stop-color:#ff0000;stop-opacity:0;"
         offset="1"
         id="stop3887" />
    </linearGradient>
    <linearGradient
       inkscape:collect="always"
       id="linearGradient3875">
      <stop
         style="stop-color:#ffffff;stop-opacity:1;"
         offset="0"
         id="stop3877" />
      <stop
         style="stop-color:#ffffff;stop-opacity:0;"
         offset="1"
         id="stop3879" />
    </linearGradient>
    <linearGradient
       id="linearGradient3867">
      <stop
         style="stop-color:#ff0e14;stop-opacity:1;"
         offset="0"
         id="stop3869" />
      <stop
         style="stop-color:#ffffff;stop-opacity:0;"
         offset="1"
         id="stop3871" />
    </linearGradient>
    <linearGradient
       id="linearGradient3859">
      <stop
         style="stop-color:#2224d9;stop-opacity:1;"
         offset="0"
         id="stop3861" />
      <stop
         style="stop-color:#ffffff;stop-opacity:0;"
         offset="1"
         id="stop3863" />
    </linearGradient>
    <linearGradient
       id="linearGradient3843">
      <stop
         style="stop-color:#ffeb00;stop-opacity:1;"
         offset="0"
         id="stop3845" />
      <stop
         style="stop-color:#fff600;stop-opacity:0;"
         offset="1"
         id="stop3847" />
    </linearGradient>
    <inkscape:path-effect
       effect="spiro"
       id="path-effect3894"
       is_visible="true" />
    <linearGradient
       id="linearGradient5321">
      <stop
         style="stop-color:#dcdcdc;stop-opacity:1;"
         offset="0"
         id="stop5323" />
      <stop
         style="stop-color:#c1c1c1;stop-opacity:0;"
         offset="1"
         id="stop5325" />
    </linearGradient>
    <linearGradient
       inkscape:collect="always"
       xlink:href="#linearGradient3843"
       id="linearGradient3849"
       x1="397.68729"
       y1="95.975166"
       x2="448.51343"
       y2="95.975166"
       gradientUnits="userSpaceOnUse" />
    <linearGradient
       inkscape:collect="always"
       xlink:href="#linearGradient3859"
       id="linearGradient3865"
       x1="600.25568"
       y1="93.600632"
       x2="654.61658"
       y2="93.600632"
       gradientUnits="userSpaceOnUse" />
    <linearGradient
       inkscape:collect="always"
       xlink:href="#linearGradient3867"
       id="linearGradient3873"
       x1="538.5448"
       y1="93.049713"
       x2="593.06226"
       y2="93.049713"
       gradientUnits="userSpaceOnUse" />
    <linearGradient
       inkscape:collect="always"
       xlink:href="#linearGradient3875"
       id="linearGradient3881"
       x1="456.17307"
       y1="93.404282"
       x2="530.4798"
       y2="93.404282"
       gradientUnits="userSpaceOnUse" />
    <linearGradient
       inkscape:collect="always"
       xlink:href="#linearGradient3883"
       id="linearGradient3889"
       x1="337.51068"
       y1="94.161369"
       x2="390.62152"
       y2="94.161369"
       gradientUnits="userSpaceOnUse" />
    <linearGradient
       inkscape:collect="always"
       xlink:href="#linearGradient3891"
       id="linearGradient3897"
       x1="662.31116"
       y1="94.824806"
       x2="703.79266"
       y2="94.824806"
       gradientUnits="userSpaceOnUse" />
    <linearGradient
       id="linearGradient5321-1">
      <stop
         style="stop-color:#dcdcdc;stop-opacity:1;"
         offset="0"
         id="stop5323-7" />
      <stop
         style="stop-color:#c1c1c1;stop-opacity:0;"
         offset="1"
         id="stop5325-4" />
    </linearGradient>
    <linearGradient
       inkscape:collect="always"
       xlink:href="#linearGradient5321-1"
       id="linearGradient3997"
       gradientUnits="userSpaceOnUse"
       gradientTransform="matrix(0.46063907,0,0,0.64638193,-87.430013,965.95566)"
       x1="-6.6299496"
       y1="274.93591"
       x2="-3.1512847"
       y2="371.04156" />
  </defs>
  <sodipodi:namedview
     inkscape:document-units="cm"
     pagecolor="#ffffff"
     bordercolor="#666666"
     borderopacity="1.0"
     inkscape:pageopacity="0.0"
     inkscape:pageshadow="2"
     inkscape:zoom="0.65378181"
     inkscape:cx="485.11054"
     inkscape:cy="391.10441"
     inkscape:current-layer="layer1"
     id="namedview2989"
     showgrid="false"
     inkscape:window-width="1024"
     inkscape:window-height="721"
     inkscape:window-x="-4"
     inkscape:window-y="-4"
     inkscape:window-maximized="1"
     units="cm"
     showguides="true"
     inkscape:guide-bbox="true" />
  <metadata
     id="metadata2991">
    <rdf:RDF>
      <cc:Work
         rdf:about="">
        <dc:format>image/svg+xml</dc:format>
        <dc:type
           rdf:resource="http://purl.org/dc/dcmitype/StillImage" />
        <dc:title />
      </cc:Work>
    </rdf:RDF>
  </metadata>
  <g
     inkscape:label="Layer 1"
     inkscape:groupmode="layer"
     id="layer1"
     transform="translate(0,-4.1796875e-5)">
    <rect
       style="opacity:0.1625;fill:none;stroke:#800000;stroke-width:7.02283478;stroke-linecap:round;stroke-linejoin:round;stroke-miterlimit:4;stroke-opacity:1;stroke-dasharray:none"
       id="rect3878"
       width="1027.1162"
       height="721.66083"
       x="11.133763"
       y="11.288526" />
    <text
       sodipodi:linespacing="125%"
       id="text3884"
       y="326.15268"
       x="381.70844"
       style="font-size:40px;font-style:normal;font-variant:normal;font-weight:bold;font-stretch:normal;text-align:start;line-height:125%;letter-spacing:0px;word-spacing:0px;writing-mode:lr-tb;text-anchor:start;fill:#d40000;fill-opacity:1;stroke:none;font-family:Sans;-inkscape-font-specification:Sans Bold"
       xml:space="preserve"><tspan
         y="326.15268"
         x="381.70844"
         id="tspan3886"
         sodipodi:role="line">[nome do jogo]</tspan></text>
    <text
       xml:space="preserve"
       style="font-size:40px;font-style:normal;font-weight:normal;line-height:125%;letter-spacing:0px;word-spacing:0px;fill:#d40000;fill-opacity:1;stroke:none;font-family:Sans"
       x="382.59711"
       y="239.36537"
       id="text3888"
       sodipodi:linespacing="125%"><tspan
         sodipodi:role="line"
         id="tspan3890"
         x="382.59711"
         y="239.36537">[nome do aluno]</tspan></text>
    <path
       style="fill:none;stroke:#000000;stroke-width:1px;stroke-linecap:butt;stroke-linejoin:miter;stroke-opacity:1"
       d="m 345.76589,675.38769 360.8304,0"
       id="path3892"
       inkscape:path-effect="#path-effect3894"
       inkscape:original-d="m 345.76589,675.38769 360.8304,0"
       inkscape:connector-curvature="0" />
    <text
       xml:space="preserve"
       style="font-size:15.88450813px;font-style:normal;font-weight:normal;line-height:125%;letter-spacing:0px;word-spacing:0px;fill:#000000;fill-opacity:1;stroke:none;font-family:Sans"
       x="442.20184"
       y="693.54492"
       id="text3896"
       sodipodi:linespacing="125%"><tspan
         sodipodi:role="line"
         id="tspan3898"
         x="442.20184"
         y="693.54492">[nome do aorganizador]</tspan></text>
    <text
       sodipodi:linespacing="125%"
       id="text3900"
       y="710.45782"
       x="481.43112"
       style="font-size:11.94031811px;font-style:normal;font-weight:normal;line-height:125%;letter-spacing:0px;word-spacing:0px;fill:#000000;fill-opacity:1;stroke:none;font-family:Sans"
       xml:space="preserve"><tspan
         y="710.45782"
         x="481.43112"
         id="tspan3902"
         sodipodi:role="line">ORGANIZADOR </tspan></text>
    <text
       sodipodi:linespacing="125%"
       id="text3911"
       y="565.4035"
       x="335.13998"
       style="font-size:19.85950851px;font-style:normal;font-variant:normal;font-weight:bold;font-stretch:normal;text-align:start;line-height:125%;letter-spacing:0px;word-spacing:0px;writing-mode:lr-tb;text-anchor:start;fill:#d40000;fill-opacity:1;stroke:none;font-family:Sans;-inkscape-font-specification:Sans Bold"
       xml:space="preserve"><tspan
         y="565.4035"
         x="335.13998"
         id="tspan3913"
         sodipodi:role="line">[cidade]/[estado], [dia] de [mês] de [ano]</tspan></text>
    <text
       xml:space="preserve"
       style="font-size:40px;font-style:normal;font-weight:normal;line-height:125%;letter-spacing:0px;word-spacing:0px;fill:#000000;fill-opacity:1;stroke:none;font-family:Sans"
       x="451.67596"
       y="128.86868"
       id="text3030"
       sodipodi:linespacing="125%"><tspan
         sodipodi:role="line"
         id="tspan3032"
         x="451.67596"
         y="128.86868" /></text>
    <text
       xml:space="preserve"
       style="font-size:19.85950851px;font-style:normal;font-variant:normal;font-weight:bold;font-stretch:normal;text-align:start;line-height:125%;letter-spacing:0px;word-spacing:0px;writing-mode:lr-tb;text-anchor:start;fill:#cccccc;fill-opacity:1;stroke:none;font-family:Sans;-inkscape-font-specification:Sans Bold"
       x="446.63153"
       y="188.78079"
       id="text3074"
       sodipodi:linespacing="125%"><tspan
         sodipodi:role="line"
         id="tspan3076"
         x="446.63153"
         y="188.78079">confere ao aluno</tspan></text>
    <text
       sodipodi:linespacing="125%"
       id="text3078"
       y="275.54984"
       x="445.28366"
       style="font-size:19.85950851px;font-style:normal;font-variant:normal;font-weight:bold;font-stretch:normal;text-align:start;line-height:125%;letter-spacing:0px;word-spacing:0px;writing-mode:lr-tb;text-anchor:start;fill:#cccccc;fill-opacity:1;stroke:none;font-family:Sans;-inkscape-font-specification:Sans Bold"
       xml:space="preserve"><tspan
         y="275.54984"
         x="445.28366"
         id="tspan3080"
         sodipodi:role="line">referente ao jogo</tspan></text>
    <text
       xml:space="preserve"
       style="font-size:19.85950851px;font-style:normal;font-variant:normal;font-weight:bold;font-stretch:normal;text-align:start;line-height:125%;letter-spacing:0px;word-spacing:0px;writing-mode:lr-tb;text-anchor:start;fill:#cccccc;fill-opacity:1;stroke:none;font-family:Sans;-inkscape-font-specification:Sans Bold"
       x="442.84485"
       y="363.4277"
       id="text3172"
       sodipodi:linespacing="125%"><tspan
         sodipodi:role="line"
         id="tspan3174"
         x="442.84485"
         y="363.4277">o(s) prêmio(s) de:</tspan></text>
    <g
       style="font-size:40px;font-style:normal;font-variant:normal;font-weight:normal;font-stretch:normal;text-align:start;line-height:125%;letter-spacing:0px;word-spacing:0px;writing-mode:lr-tb;text-anchor:start;fill:#d40000;fill-opacity:0.72156863;stroke:none;font-family:Action Comics;-inkscape-font-specification:Action Comics"
       id="text3075"
       transform="translate(-11.678339,0)">
      <path
         d="m 398.1329,58.771957 -0.0391,0.136719 2.89063,2.871094 -2.8711,10.429687 2.1875,2.1875 0.83985,2.539063 c 0.0651,-0.260386 0.12691,-0.517547 0.18554,-0.771484 0.0586,-0.253875 0.12041,-0.511036 0.18555,-0.771485 0.49475,-2.044237 0.98629,-4.108037 1.47461,-6.191406 0.48824,-2.083293 0.95373,-4.042927 1.39648,-5.878906 l 25.42969,-3.476563 -0.0391,0.117188 2.89062,2.890625 -17.71484,61.015621 -20.3125,2.5 -2.89062,-2.89062 -0.0977,0.0195 -0.99609,-7.24609 c -1.36722,1.79686 -2.72139,3.57746 -4.0625,5.34179 -1.34117,1.76431 -2.63675,3.47329 -3.88672,5.12696 l -20.72266,0.41015 -2.87109,-2.87109 -0.13672,0 12.67578,-60.332033 z m -24.17968,7.5 -11.60157,55.195313 16.07422,-0.33203 13.26172,-17.40235 2.32422,16.73829 15.91797,-1.97266 16.07422,-55.371094 -19.39453,2.65625 -5.80078,24.375 -4.31641,-12.773437 -10.11719,14.414062 -0.15625,0 8.125,-29.492187 z"
         id="path3080"
         inkscape:connector-curvature="0"
         style="fill:#d40000;fill-opacity:0.72156863" />
      <path
         d="m 470.35947,61.701645 -0.0391,0.117187 2.89063,2.871094 -14.41406,58.593754 -27.05078,2.10937 -2.8711,-2.89062 -0.13672,0.0195 20.50782,-59.707034 z m -19.1211,3.75 -18.55468,54.023435 21.05468,-1.64062 13.08594,-53.203128 z"
         id="path3082"
         inkscape:connector-curvature="0"
         style="fill:#d40000;fill-opacity:0.72156863" />
      <path
         d="m 509.754,60.236801 0.0195,0.15625 2.85156,2.832031 1.25,5.957032 c 0.45569,-1.354127 0.90816,-2.678996 1.35742,-3.97461 0.44918,-1.295529 0.87561,-2.542273 1.2793,-3.740234 l 21.07422,-0.898438 -0.0391,0.117188 2.89062,2.871094 -14.39453,58.730466 -25.3125,2.01172 -2.12891,-2.12891 -26.28906,2.07032 -2.87109,-2.89063 -0.15625,0.0195 20.8789,-59.863278 z m -17.61719,3.886719 -18.88672,54.19922 21.21094,-1.66016 3.32031,-13.92578 0.15625,0 2.16797,15.76172 20.87891,-1.66016 13.08593,-53.378903 -15.5664,0.664063 -6.46485,19.0625 -0.17578,0 -4.29687,-20.058594 z"
         id="path3084"
         inkscape:connector-curvature="0"
         style="fill:#d40000;fill-opacity:0.72156863" />
      <path
         d="m 577.01962,60.236801 0.0195,0.15625 2.85157,2.832031 1.25,5.957032 c 0.45568,-1.354127 0.90816,-2.678996 1.35742,-3.97461 0.44917,-1.295529 0.8756,-2.542273 1.2793,-3.740234 l 21.07421,-0.898438 -0.0391,0.117188 2.89063,2.871094 -14.39453,58.730466 -25.3125,2.01172 -2.12891,-2.12891 -26.28906,2.07032 -2.8711,-2.89063 -0.15625,0.0195 20.87891,-59.863278 z m -17.61718,3.886719 -18.88672,54.19922 21.21093,-1.66016 3.32032,-13.92578 0.15625,0 2.16797,15.76172 20.8789,-1.66016 13.08594,-53.378903 -15.56641,0.664063 -6.46484,19.0625 -0.17578,0 -4.29688,-20.058594 z"
         id="path3086"
         inkscape:connector-curvature="0"
         style="fill:#d40000;fill-opacity:0.72156863" />
      <path
         d="m 654.63681,60.725082 0,0.117188 2.87109,2.871094 0,17.519531 -8.57421,1.601562 0.54687,0.546875 -3.86719,15.390625 c 0.88538,-0.14322 1.73824,-0.283194 2.5586,-0.419921 0.82027,-0.13671 1.60152,-0.270173 2.34375,-0.400391 l 0,0.117187 2.87109,2.871098 0,20.07812 -46.5625,3.32031 -2.87109,-2.89062 -0.13672,0.0195 14.98047,-60.742188 z m -33.69141,2.734375 -13.57421,55.019533 40.41015,-2.89063 0,-14.43359 -19.78515,3.26172 -0.15625,0 1.03515,-5.781251 10.9961,-2.539063 3.26171,-12.96875 -11.34765,0 0.68359,-3.4375 19.4336,-3.613281 0,-12.617188 z"
         id="path3088"
         inkscape:connector-curvature="0"
         style="fill:#d40000;fill-opacity:0.72156863" />
      <path
         d="m 711.90244,60.393051 -0.0195,0.117188 2.8711,2.871093 -6.69922,33.261719 -3.26172,0 c 0.95047,2.031259 1.94331,4.143889 2.97852,6.337889 1.0351,2.19401 2.07351,4.38802 3.11523,6.58203 1.04161,2.19401 2.06049,4.3457 3.05664,6.45508 0.99604,2.10937 1.93028,4.09504 2.80274,5.95703 l -25.3125,4.08203 -2.89063,-2.89062 -0.0781,0.0195 -1.69922,-5.41016 c -0.14326,1.01562 -0.28649,2.0052 -0.42969,2.96875 -0.14326,0.96353 -0.27347,1.90103 -0.39063,2.8125 -4.24481,0.69009 -7.98179,1.2923 -11.21093,1.80664 -3.22919,0.51431 -6.02541,0.944 -8.38868,1.28907 -2.36328,0.34503 -4.33268,0.60545 -5.9082,0.78125 -1.57552,0.17576 -2.83203,0.26365 -3.76953,0.26367 l -2.87109,-2.8711 -0.13672,0 16.42578,-64.60937 z m -23.4961,15.273438 -0.60547,7.070312 -2.36328,0.214844 1.15235,-7.617188 z m -16.1914,-12.714844 -15.03907,59.140625 c 0.10417,-1e-5 7.92317,-1.26303 23.45703,-3.78906 l 2.8125,-19.824221 0.15625,0 6.77735,21.640621 19.51172,-3.14453 -12.22657,-25.937498 5.27344,0 5.625,-27.929687 z"
         id="path3090"
         inkscape:connector-curvature="0"
         style="fill:#d40000;fill-opacity:0.72156863" />
    </g>
    <g
       id="g4069"
       transform="translate(77.722342,0)"
       style="fill:#d40000;fill-opacity:1">
      <text
         sodipodi:linespacing="125%"
         id="text3922"
         y="339.98724"
         x="390.26233"
         style="font-size:25.81705093px;font-style:normal;font-variant:normal;font-weight:normal;font-stretch:normal;text-align:start;line-height:125%;letter-spacing:0px;word-spacing:0px;writing-mode:lr-tb;text-anchor:start;fill:#d40000;fill-opacity:1;stroke:none;font-family:Sans;-inkscape-font-specification:Sans"
         xml:space="preserve"><tspan
           y="339.98724"
           x="390.26233"
           id="tspan3924"
           sodipodi:role="line" /><tspan
           id="tspan3949"
           y="372.25854"
           x="390.26233"
           sodipodi:role="line" /><tspan
           id="tspan3943"
           y="404.52988"
           x="390.26233"
           sodipodi:role="line">[premiação 1]</tspan><tspan
           id="tspan3947"
           y="436.80118"
           x="390.26233"
           sodipodi:role="line">[premiação 2]</tspan><tspan
           id="tspan3941"
           y="469.07251"
           x="390.26233"
           sodipodi:role="line" /></text>
      <g
         transform="matrix(0.21517882,0,0,0.21517882,316.34684,321.73971)"
         id="g3890"
         style="fill:#d40000;fill-opacity:1">
        <path
           inkscape:connector-curvature="0"
           id="path3899"
           d="m 191.09143,340.57651 c -0.36253,-0.58659 -0.44468,-1.281 -0.18255,-1.54313 0.26212,-0.26213 0.74306,0.21781 1.06875,1.06653 0.67618,1.76211 0.0999,2.07206 -0.8862,0.4766 z m 10.29112,-17.6392 c 1.2375,-0.23836 3.2625,-0.23836 4.5,0 1.2375,0.23835 0.225,0.43337 -2.25,0.43337 -2.475,0 -3.4875,-0.19502 -2.25,-0.43337 z m 35.98097,0.0498 c 0.67703,-0.27393 2.02703,-0.2906 3,-0.037 0.97297,0.25354 0.41903,0.47766 -1.23097,0.49804 -1.65,0.0204 -2.44606,-0.18707 -1.76903,-0.46099 z"
           style="fill:#d40000;fill-opacity:1" />
        <path
           inkscape:connector-curvature="0"
           id="path3897"
           d="m 235.63255,374.64304 c 0,-0.55 0.19844,-1 0.44098,-1 0.24254,0 0.7191,0.45 1.05902,1 0.33992,0.55 0.14148,1 -0.44098,1 -0.58246,0 -1.05902,-0.45 -1.05902,-1 z m -1.49292,-19.98855 c -0.35034,-0.56686 0.0511,-0.7345 0.94098,-0.39301 1.73242,0.66479 2.04939,1.38156 0.61096,1.38156 -0.51754,0 -1.21592,-0.44485 -1.55194,-0.98855 z m -4.86871,-12.51145 c 0.31659,-0.825 0.70432,-1.5 0.86163,-1.5 0.15731,0 0.54504,0.675 0.86163,1.5 0.3471,0.90455 0.005,1.5 -0.86163,1.5 -0.86669,0 -1.20873,-0.59545 -0.86163,-1.5 z"
           style="fill:#d40000;fill-opacity:1" />
        <path
           inkscape:connector-curvature="0"
           id="path3895"
           d="m 200.63255,373.54942 c 0,-0.49851 0.9,-0.90638 2,-0.90638 1.1,0 2,0.17252 2,0.38337 0,0.21085 -0.9,0.61872 -2,0.90638 -1.1,0.28765 -2,0.11514 -2,-0.38337 z m 7,-4.84736 c 0,-0.51754 0.44485,-1.21592 0.98855,-1.55194 0.56686,-0.35034 0.7345,0.0511 0.39301,0.94098 -0.66479,1.73242 -1.38156,2.04939 -1.38156,0.61096 z m 20,0 c 0,-0.51754 0.44485,-1.21592 0.98855,-1.55194 0.56686,-0.35034 0.7345,0.0511 0.39301,0.94098 -0.66479,1.73242 -1.38156,2.04939 -1.38156,0.61096 z m -31.26667,-3.18311 c 0.67834,-0.68342 1.48524,-0.99067 1.79313,-0.68278 0.30789,0.30788 -0.24711,0.86705 -1.23333,1.24258 -1.4252,0.54268 -1.54006,0.42782 -0.5598,-0.5598 z m 4.83096,-0.58278 c -0.54268,-1.4252 -0.42782,-1.54006 0.5598,-0.5598 0.68342,0.67834 0.99067,1.48524 0.68278,1.79313 -0.30788,0.30789 -0.86705,-0.24711 -1.24258,-1.23333 z m -1.56429,-3.23411 c 0,-0.51754 0.44485,-1.21592 0.98855,-1.55194 0.56686,-0.35034 0.7345,0.0511 0.39301,0.94098 -0.66479,1.73242 -1.38156,2.04939 -1.38156,0.61096 z m -30.25,-38.79626 c 2.8875,-0.202 7.6125,-0.202 10.5,0 2.8875,0.202 0.525,0.36727 -5.25,0.36727 -5.775,0 -8.1375,-0.16527 -5.25,-0.36727 z m 82.48209,0.0227 c 1.50265,-0.22818 4.20265,-0.23277 6,-0.0102 1.79735,0.22255 0.56791,0.40924 -2.73209,0.41485 -3.3,0.006 -4.77056,-0.17648 -3.26791,-0.40466 z m 14.54434,-0.019 c 2.35204,-0.21125 5.95204,-0.20828 8,0.007 2.04796,0.21488 0.12357,0.38771 -4.27643,0.38408 -4.4,-0.004 -6.07561,-0.17944 -3.72357,-0.39069 z m -49.27643,-18.26651 c -0.33992,-0.55 -0.14148,-1 0.44098,-1 0.58246,0 1.05902,0.45 1.05902,1 0,0.55 -0.19844,1 -0.44098,1 -0.24254,0 -0.7191,-0.45 -1.05902,-1 z"
           style="fill:#d40000;fill-opacity:1" />
        <path
           inkscape:connector-curvature="0"
           id="path3893"
           d="m 186.63255,389.05432 c 0,-1.99196 9.57742,-30.40426 10.25,-30.40758 0.4125,-0.002 0.75,1.3463 0.75,2.9963 0,1.65 -0.45,3 -1,3 -0.55,0 -0.99798,0.3375 -0.99552,0.75 0.002,0.4125 1.57747,0.83051 3.5,0.92891 3.2825,0.16801 4.59056,-0.88411 2.61623,-2.10431 -0.48362,-0.29889 -1.11665,-1.45107 -1.40675,-2.5604 -0.29009,-1.10933 -0.11941,-1.76478 0.3793,-1.45656 0.49871,0.30821 0.90674,-0.14116 0.90674,-0.99862 0,-0.88578 -0.85288,-1.55902 -1.975,-1.55902 -1.67673,0 -1.89019,-0.49083 -1.41347,-3.25 0.30885,-1.7875 0.71803,-3.77227 0.90931,-4.41059 0.19127,-0.63832 -1.4116,-2.32489 -3.56195,-3.74792 -3.53056,-2.33641 -3.84848,-2.89355 -3.27821,-5.7449 0.45149,-2.25743 0.30194,-2.95389 -0.52458,-2.44306 -0.63586,0.39297 -1.1561,1.36295 -1.1561,2.15549 0,0.79254 -0.27853,1.44098 -0.61895,1.44098 -0.34043,0 -6.15799,-3.9375 -12.92793,-8.75 l -12.30898,-8.75 21.49988,-0.5 21.49989,-0.5 1.83425,-5.5 c 1.00884,-3.025 3.92832,-12.14746 6.48773,-20.27213 2.55942,-8.12467 5.07662,-14.51061 5.5938,-14.19098 0.51717,0.31963 0.94031,1.20279 0.94031,1.96258 0,0.75979 1.81528,6.92073 4.03396,13.69098 2.21868,6.77025 4.7861,14.78455 5.70539,17.80955 0.91929,3.025 1.96395,5.86245 2.32148,6.30544 0.35753,0.44299 10.27683,0.77466 22.04289,0.73704 l 21.39283,-0.0684 -8.99828,6.48486 c -4.94905,3.56668 -12.87009,9.3016 -17.60231,12.74428 l -8.60403,6.25941 3.69457,11.01869 c 2.03202,6.06027 3.51758,11.53995 3.30125,12.17704 -0.21633,0.6371 0.0804,1.45116 0.65946,1.80902 0.57904,0.35786 1.05279,1.7491 1.05279,3.09164 0,1.34254 0.36411,2.44098 0.80913,2.44098 0.44502,0 1.52864,2.25 2.40806,5 0.87941,2.75 1.25893,5 0.84337,5 -1.77437,0 -18.06056,-13.19577 -18.06056,-14.63344 0,-1.05585 -0.54596,-1.37103 -1.64462,-0.94944 -1.67748,0.64371 -5.35538,-1.90548 -5.35538,-3.71187 0,-0.54162 0.6905,-1.48967 1.53444,-2.10678 1.37912,-1.00843 1.37887,-1.32327 -0.002,-3.11024 -0.85453,-1.10547 -1.31364,-1.32224 -1.03405,-0.48823 0.31694,0.94544 -0.51399,1.97471 -2.24755,2.78403 -2.53534,1.18363 -2.92385,1.06816 -4.96879,-1.47679 l -2.2184,-2.76083 -3.2816,3.09969 c -1.80488,1.70483 -5.80483,4.84438 -8.88877,6.97679 -3.08394,2.13241 -8.25894,5.94179 -11.5,8.46529 -7.57433,5.89741 -11.39283,8.35187 -11.39283,7.3231 z m 17,-14.41128 c 0.90226,-1.68589 0.76049,-2 -0.90267,-2 -1.35658,0 -1.92596,0.62487 -1.82238,2 0.0829,1.1 0.48906,2 0.90267,2 0.41361,0 1.23368,-0.9 1.82238,-2 z m 33,-5 c 0,-0.55 -0.45,-1 -1,-1 -0.55,0 -1,0.45 -1,1 0,0.55 0.45,1 1,1 0.55,0 1,-0.45 1,-1 z m -27.65792,-1.44907 c 0.37093,-0.96661 0.0755,-1.26467 -0.88726,-0.89522 -0.79383,0.30462 -1.19436,0.95671 -0.89006,1.44907 0.76643,1.24011 1.13272,1.12596 1.77732,-0.55385 z m 33.15792,-5.55093 c -0.33992,-0.55 -1.15398,-0.99311 -1.80902,-0.98469 -0.71561,0.009 -0.59227,0.40223 0.30902,0.98469 1.92112,1.24152 2.2673,1.24152 1.5,0 z m -3.09309,-4.25 c -0.39111,-0.6875 -1.36175,-2.00914 -2.15698,-2.93699 -0.79522,-0.92784 -1.1534,-2.16019 -0.79595,-2.73854 0.39388,-0.63733 0.0385,-0.81697 -0.90204,-0.45603 -2.04828,0.786 -1.95971,1.59344 0.52064,4.7467 2.08314,2.64828 4.66256,3.7196 3.33433,1.38486 z m -5.40691,-0.80902 c 0,-0.58246 -0.45,-0.7809 -1,-0.44098 -0.55,0.33992 -1,0.81648 -1,1.05902 0,0.24254 0.45,0.44098 1,0.44098 0.55,0 1,-0.47656 1,-1.05902 z m -7.81667,-2.15765 c -0.71756,-0.71756 -1.18333,-0.7766 -1.18333,-0.15 0,1.33478 1.18261,2.51739 1.85,1.85 0.28417,-0.28416 -0.0158,-1.04916 -0.66667,-1.7 z m -3.544,-3.54864 c 0.83514,-0.53853 0.79563,-1.05352 -0.14798,-1.92882 -1.01387,-0.94048 -1.3953,-0.78117 -1.79571,0.75 -0.53487,2.04534 0.0499,2.4 1.94369,1.17882 z m 14.47317,-7.52219 c -0.81667,-0.81667 -1.1125,-0.70476 -1.1125,0.42083 0,1.98786 1.3447,3.33256 1.84167,1.84167 0.21083,-0.6325 -0.1173,-1.65063 -0.72917,-2.2625 z m -7.42914,-0.32536 c 1.90259,-0.51025 2.04269,-0.89428 1.08948,-2.98635 -0.60163,-1.32043 -1.4982,-2.40079 -1.99237,-2.40079 -0.49418,0 -0.57313,0.52647 -0.17544,1.16994 0.49644,0.80326 0.1618,0.95456 -1.06773,0.48275 -2.20004,-0.84424 -4.61604,0.97855 -3.87087,2.92042 0.58164,1.51572 2.45531,1.76921 6.01693,0.81403 z m -33.53105,-11.63714 c 0.25143,-3.71404 0.36141,-4.18727 1.33639,-5.75 0.51471,-0.825 -0.44048,-0.375 -2.12264,1 -2.60233,2.12714 -2.90833,2.83557 -2.05176,4.75 0.5537,1.2375 1.3845,2.25 1.84622,2.25 0.46171,0 0.90802,-1.0125 0.99179,-2.25 z m 54.34769,-3.75 c -0.33992,-0.55 -1.06803,-1 -1.61803,-1 -0.55,0 -0.72189,0.45 -0.38197,1 0.33992,0.55 1.06803,1 1.61803,1 0.55,0 0.72189,-0.45 0.38197,-1 z m -29.15492,-1.54313 c -0.32569,-0.84872 -0.80663,-1.32866 -1.06875,-1.06653 -0.26213,0.26213 -0.17998,0.95654 0.18255,1.54313 0.98605,1.59546 1.56238,1.28551 0.8862,-0.4766 z m -1.34508,-3.45687 c 0,-0.55 -0.45,-1 -1,-1 -0.55,0 -1,0.45 -1,1 0,0.55 0.45,1 1,1 0.55,0 1,-0.45 1,-1 z m -1,-19 c 0,-0.55 -0.45,-1 -1,-1 -0.55,0 -1,0.45 -1,1 0,0.55 0.45,1 1,1 0.55,0 1,-0.45 1,-1 z"
           style="fill:#d40000;fill-opacity:1" />
      </g>
      <g
         id="g3901"
         transform="matrix(0.21517882,0,0,0.21517882,316.34684,353.73971)"
         style="fill:#d40000;fill-opacity:1">
        <path
           style="fill:#d40000;fill-opacity:1"
           d="m 191.09143,340.57651 c -0.36253,-0.58659 -0.44468,-1.281 -0.18255,-1.54313 0.26212,-0.26213 0.74306,0.21781 1.06875,1.06653 0.67618,1.76211 0.0999,2.07206 -0.8862,0.4766 z m 10.29112,-17.6392 c 1.2375,-0.23836 3.2625,-0.23836 4.5,0 1.2375,0.23835 0.225,0.43337 -2.25,0.43337 -2.475,0 -3.4875,-0.19502 -2.25,-0.43337 z m 35.98097,0.0498 c 0.67703,-0.27393 2.02703,-0.2906 3,-0.037 0.97297,0.25354 0.41903,0.47766 -1.23097,0.49804 -1.65,0.0204 -2.44606,-0.18707 -1.76903,-0.46099 z"
           id="path3903"
           inkscape:connector-curvature="0" />
        <path
           style="fill:#d40000;fill-opacity:1"
           d="m 235.63255,374.64304 c 0,-0.55 0.19844,-1 0.44098,-1 0.24254,0 0.7191,0.45 1.05902,1 0.33992,0.55 0.14148,1 -0.44098,1 -0.58246,0 -1.05902,-0.45 -1.05902,-1 z m -1.49292,-19.98855 c -0.35034,-0.56686 0.0511,-0.7345 0.94098,-0.39301 1.73242,0.66479 2.04939,1.38156 0.61096,1.38156 -0.51754,0 -1.21592,-0.44485 -1.55194,-0.98855 z m -4.86871,-12.51145 c 0.31659,-0.825 0.70432,-1.5 0.86163,-1.5 0.15731,0 0.54504,0.675 0.86163,1.5 0.3471,0.90455 0.005,1.5 -0.86163,1.5 -0.86669,0 -1.20873,-0.59545 -0.86163,-1.5 z"
           id="path3905"
           inkscape:connector-curvature="0" />
        <path
           style="fill:#d40000;fill-opacity:1"
           d="m 200.63255,373.54942 c 0,-0.49851 0.9,-0.90638 2,-0.90638 1.1,0 2,0.17252 2,0.38337 0,0.21085 -0.9,0.61872 -2,0.90638 -1.1,0.28765 -2,0.11514 -2,-0.38337 z m 7,-4.84736 c 0,-0.51754 0.44485,-1.21592 0.98855,-1.55194 0.56686,-0.35034 0.7345,0.0511 0.39301,0.94098 -0.66479,1.73242 -1.38156,2.04939 -1.38156,0.61096 z m 20,0 c 0,-0.51754 0.44485,-1.21592 0.98855,-1.55194 0.56686,-0.35034 0.7345,0.0511 0.39301,0.94098 -0.66479,1.73242 -1.38156,2.04939 -1.38156,0.61096 z m -31.26667,-3.18311 c 0.67834,-0.68342 1.48524,-0.99067 1.79313,-0.68278 0.30789,0.30788 -0.24711,0.86705 -1.23333,1.24258 -1.4252,0.54268 -1.54006,0.42782 -0.5598,-0.5598 z m 4.83096,-0.58278 c -0.54268,-1.4252 -0.42782,-1.54006 0.5598,-0.5598 0.68342,0.67834 0.99067,1.48524 0.68278,1.79313 -0.30788,0.30789 -0.86705,-0.24711 -1.24258,-1.23333 z m -1.56429,-3.23411 c 0,-0.51754 0.44485,-1.21592 0.98855,-1.55194 0.56686,-0.35034 0.7345,0.0511 0.39301,0.94098 -0.66479,1.73242 -1.38156,2.04939 -1.38156,0.61096 z m -30.25,-38.79626 c 2.8875,-0.202 7.6125,-0.202 10.5,0 2.8875,0.202 0.525,0.36727 -5.25,0.36727 -5.775,0 -8.1375,-0.16527 -5.25,-0.36727 z m 82.48209,0.0227 c 1.50265,-0.22818 4.20265,-0.23277 6,-0.0102 1.79735,0.22255 0.56791,0.40924 -2.73209,0.41485 -3.3,0.006 -4.77056,-0.17648 -3.26791,-0.40466 z m 14.54434,-0.019 c 2.35204,-0.21125 5.95204,-0.20828 8,0.007 2.04796,0.21488 0.12357,0.38771 -4.27643,0.38408 -4.4,-0.004 -6.07561,-0.17944 -3.72357,-0.39069 z m -49.27643,-18.26651 c -0.33992,-0.55 -0.14148,-1 0.44098,-1 0.58246,0 1.05902,0.45 1.05902,1 0,0.55 -0.19844,1 -0.44098,1 -0.24254,0 -0.7191,-0.45 -1.05902,-1 z"
           id="path3907"
           inkscape:connector-curvature="0" />
        <path
           style="fill:#d40000;fill-opacity:1"
           d="m 186.63255,389.05432 c 0,-1.99196 9.57742,-30.40426 10.25,-30.40758 0.4125,-0.002 0.75,1.3463 0.75,2.9963 0,1.65 -0.45,3 -1,3 -0.55,0 -0.99798,0.3375 -0.99552,0.75 0.002,0.4125 1.57747,0.83051 3.5,0.92891 3.2825,0.16801 4.59056,-0.88411 2.61623,-2.10431 -0.48362,-0.29889 -1.11665,-1.45107 -1.40675,-2.5604 -0.29009,-1.10933 -0.11941,-1.76478 0.3793,-1.45656 0.49871,0.30821 0.90674,-0.14116 0.90674,-0.99862 0,-0.88578 -0.85288,-1.55902 -1.975,-1.55902 -1.67673,0 -1.89019,-0.49083 -1.41347,-3.25 0.30885,-1.7875 0.71803,-3.77227 0.90931,-4.41059 0.19127,-0.63832 -1.4116,-2.32489 -3.56195,-3.74792 -3.53056,-2.33641 -3.84848,-2.89355 -3.27821,-5.7449 0.45149,-2.25743 0.30194,-2.95389 -0.52458,-2.44306 -0.63586,0.39297 -1.1561,1.36295 -1.1561,2.15549 0,0.79254 -0.27853,1.44098 -0.61895,1.44098 -0.34043,0 -6.15799,-3.9375 -12.92793,-8.75 l -12.30898,-8.75 21.49988,-0.5 21.49989,-0.5 1.83425,-5.5 c 1.00884,-3.025 3.92832,-12.14746 6.48773,-20.27213 2.55942,-8.12467 5.07662,-14.51061 5.5938,-14.19098 0.51717,0.31963 0.94031,1.20279 0.94031,1.96258 0,0.75979 1.81528,6.92073 4.03396,13.69098 2.21868,6.77025 4.7861,14.78455 5.70539,17.80955 0.91929,3.025 1.96395,5.86245 2.32148,6.30544 0.35753,0.44299 10.27683,0.77466 22.04289,0.73704 l 21.39283,-0.0684 -8.99828,6.48486 c -4.94905,3.56668 -12.87009,9.3016 -17.60231,12.74428 l -8.60403,6.25941 3.69457,11.01869 c 2.03202,6.06027 3.51758,11.53995 3.30125,12.17704 -0.21633,0.6371 0.0804,1.45116 0.65946,1.80902 0.57904,0.35786 1.05279,1.7491 1.05279,3.09164 0,1.34254 0.36411,2.44098 0.80913,2.44098 0.44502,0 1.52864,2.25 2.40806,5 0.87941,2.75 1.25893,5 0.84337,5 -1.77437,0 -18.06056,-13.19577 -18.06056,-14.63344 0,-1.05585 -0.54596,-1.37103 -1.64462,-0.94944 -1.67748,0.64371 -5.35538,-1.90548 -5.35538,-3.71187 0,-0.54162 0.6905,-1.48967 1.53444,-2.10678 1.37912,-1.00843 1.37887,-1.32327 -0.002,-3.11024 -0.85453,-1.10547 -1.31364,-1.32224 -1.03405,-0.48823 0.31694,0.94544 -0.51399,1.97471 -2.24755,2.78403 -2.53534,1.18363 -2.92385,1.06816 -4.96879,-1.47679 l -2.2184,-2.76083 -3.2816,3.09969 c -1.80488,1.70483 -5.80483,4.84438 -8.88877,6.97679 -3.08394,2.13241 -8.25894,5.94179 -11.5,8.46529 -7.57433,5.89741 -11.39283,8.35187 -11.39283,7.3231 z m 17,-14.41128 c 0.90226,-1.68589 0.76049,-2 -0.90267,-2 -1.35658,0 -1.92596,0.62487 -1.82238,2 0.0829,1.1 0.48906,2 0.90267,2 0.41361,0 1.23368,-0.9 1.82238,-2 z m 33,-5 c 0,-0.55 -0.45,-1 -1,-1 -0.55,0 -1,0.45 -1,1 0,0.55 0.45,1 1,1 0.55,0 1,-0.45 1,-1 z m -27.65792,-1.44907 c 0.37093,-0.96661 0.0755,-1.26467 -0.88726,-0.89522 -0.79383,0.30462 -1.19436,0.95671 -0.89006,1.44907 0.76643,1.24011 1.13272,1.12596 1.77732,-0.55385 z m 33.15792,-5.55093 c -0.33992,-0.55 -1.15398,-0.99311 -1.80902,-0.98469 -0.71561,0.009 -0.59227,0.40223 0.30902,0.98469 1.92112,1.24152 2.2673,1.24152 1.5,0 z m -3.09309,-4.25 c -0.39111,-0.6875 -1.36175,-2.00914 -2.15698,-2.93699 -0.79522,-0.92784 -1.1534,-2.16019 -0.79595,-2.73854 0.39388,-0.63733 0.0385,-0.81697 -0.90204,-0.45603 -2.04828,0.786 -1.95971,1.59344 0.52064,4.7467 2.08314,2.64828 4.66256,3.7196 3.33433,1.38486 z m -5.40691,-0.80902 c 0,-0.58246 -0.45,-0.7809 -1,-0.44098 -0.55,0.33992 -1,0.81648 -1,1.05902 0,0.24254 0.45,0.44098 1,0.44098 0.55,0 1,-0.47656 1,-1.05902 z m -7.81667,-2.15765 c -0.71756,-0.71756 -1.18333,-0.7766 -1.18333,-0.15 0,1.33478 1.18261,2.51739 1.85,1.85 0.28417,-0.28416 -0.0158,-1.04916 -0.66667,-1.7 z m -3.544,-3.54864 c 0.83514,-0.53853 0.79563,-1.05352 -0.14798,-1.92882 -1.01387,-0.94048 -1.3953,-0.78117 -1.79571,0.75 -0.53487,2.04534 0.0499,2.4 1.94369,1.17882 z m 14.47317,-7.52219 c -0.81667,-0.81667 -1.1125,-0.70476 -1.1125,0.42083 0,1.98786 1.3447,3.33256 1.84167,1.84167 0.21083,-0.6325 -0.1173,-1.65063 -0.72917,-2.2625 z m -7.42914,-0.32536 c 1.90259,-0.51025 2.04269,-0.89428 1.08948,-2.98635 -0.60163,-1.32043 -1.4982,-2.40079 -1.99237,-2.40079 -0.49418,0 -0.57313,0.52647 -0.17544,1.16994 0.49644,0.80326 0.1618,0.95456 -1.06773,0.48275 -2.20004,-0.84424 -4.61604,0.97855 -3.87087,2.92042 0.58164,1.51572 2.45531,1.76921 6.01693,0.81403 z m -33.53105,-11.63714 c 0.25143,-3.71404 0.36141,-4.18727 1.33639,-5.75 0.51471,-0.825 -0.44048,-0.375 -2.12264,1 -2.60233,2.12714 -2.90833,2.83557 -2.05176,4.75 0.5537,1.2375 1.3845,2.25 1.84622,2.25 0.46171,0 0.90802,-1.0125 0.99179,-2.25 z m 54.34769,-3.75 c -0.33992,-0.55 -1.06803,-1 -1.61803,-1 -0.55,0 -0.72189,0.45 -0.38197,1 0.33992,0.55 1.06803,1 1.61803,1 0.55,0 0.72189,-0.45 0.38197,-1 z m -29.15492,-1.54313 c -0.32569,-0.84872 -0.80663,-1.32866 -1.06875,-1.06653 -0.26213,0.26213 -0.17998,0.95654 0.18255,1.54313 0.98605,1.59546 1.56238,1.28551 0.8862,-0.4766 z m -1.34508,-3.45687 c 0,-0.55 -0.45,-1 -1,-1 -0.55,0 -1,0.45 -1,1 0,0.55 0.45,1 1,1 0.55,0 1,-0.45 1,-1 z m -1,-19 c 0,-0.55 -0.45,-1 -1,-1 -0.55,0 -1,0.45 -1,1 0,0.55 0.45,1 1,1 0.55,0 1,-0.45 1,-1 z"
           id="path3909"
           inkscape:connector-curvature="0" />
      </g>
    </g>
    <g
       id="g4037"
       transform="translate(169.02661,-163.02661)">
      <rect
         style="fill:url(#linearGradient3997);fill-opacity:1;fill-rule:evenodd;stroke:none"
         id="rect3075"
         width="52.806793"
         height="40.274101"
         x="-109.33266"
         y="1141.3579"
         transform="matrix(1,0,0.65732405,0.75360805,0,0)"
         inkscape:transform-center-x="14.822399" />
      <g
         id="g3007"
         transform="matrix(0.46094651,0,0,0.46094651,507.81418,742.21705)">
        <path
           style="fill:#e6e6e6;fill-opacity:1;fill-rule:evenodd;stroke:none"
           d="m 359.27889,164.76317 81.0762,-6.88883 2.11965,6.09396 -27.59443,86.30446 c 0,0 -2.79134,26.07199 -64.87485,25.77148 -60.46964,-0.2927 -64.02167,-24.76332 -64.02167,-24.76332 l -31.09715,-87.84253 z"
           id="path3003"
           inkscape:connector-curvature="0"
           sodipodi:nodetypes="ccccsccc" />
        <path
           transform="translate(-4.7691887,-4.2392789)"
           d="m 447.77384,166.35289 c 0,24.8762 -42.11165,45.04234 -94.059,45.04234 -51.94735,0 -94.05899,-20.16614 -94.05899,-45.04234 0,-24.8762 42.11164,-45.04234 94.05899,-45.04234 51.94735,0 94.059,20.16614 94.059,45.04234 z"
           sodipodi:ry="45.042339"
           sodipodi:rx="94.058998"
           sodipodi:cy="166.35289"
           sodipodi:cx="353.71484"
           id="path2996"
           style="fill:#cccccc;fill-opacity:1;fill-rule:evenodd;stroke:none"
           sodipodi:type="arc" />
        <path
           sodipodi:nodetypes="ccccsccc"
           inkscape:connector-curvature="0"
           id="rect3000"
           d="m 271.84376,119.72083 146.78503,-2.64955 3.70937,8.2136 -3.17946,40.0082 c 0,0 -7.57995,32.51894 -70.21306,32.85441 -64.82364,0.34721 -78.1617,-32.85441 -78.1617,-32.85441 l -1.05982,-36.29883 z"
           style="fill:#d40000;fill-opacity:1;fill-rule:evenodd;stroke:none" />
        <path
           sodipodi:type="arc"
           style="fill:#aa0000;fill-opacity:1;fill-rule:evenodd;stroke:none"
           id="path2998"
           sodipodi:cx="353.71484"
           sodipodi:cy="166.35289"
           sodipodi:rx="94.058998"
           sodipodi:ry="45.042339"
           d="m 447.77384,166.35289 c 0,24.8762 -42.11165,45.04234 -94.059,45.04234 -51.94735,0 -94.05899,-20.16614 -94.05899,-45.04234 0,-24.8762 42.11164,-45.04234 94.05899,-45.04234 51.94735,0 94.059,20.16614 94.059,45.04234 z"
           transform="matrix(0.79436619,0,0,0.77647059,65.052038,-7.327666)" />
      </g>
      <g
         id="text3038"
         style="font-size:18.43786049px;font-style:normal;font-variant:normal;font-weight:normal;font-stretch:normal;text-align:start;line-height:125%;letter-spacing:0px;word-spacing:0px;writing-mode:lr-tb;text-anchor:start;fill:#000000;fill-opacity:1;stroke:none;font-family:Gotham Ultra;-inkscape-font-specification:Gotham Ultra">
        <path
           id="path4022"
           style="fill:#000000;font-family:Gotham Ultra;-inkscape-font-specification:Gotham Ultra"
           d="m 728.19594,829.44874 c 2.03658,-0.0465 3.71132,-0.70024 5.02425,-1.9613 1.3129,-1.26105 1.99202,-2.85053 2.03736,-4.76843 l 0,-0.0369 c -0.0438,-1.91636 -0.71678,-3.49968 -2.01892,-4.75 -1.30217,-1.25029 -2.97078,-1.89791 -5.00582,-1.94286 -2.03659,0.0465 -3.71134,0.70026 -5.02425,1.9613 -1.31292,1.26107 -1.99203,2.85054 -2.03736,4.76843 l 0,0.0369 c 0.0438,1.91636 0.71676,3.49969 2.01892,4.74999 1.30215,1.2503 2.97076,1.89792 5.00582,1.94286 z m 0.0369,-3.81658 c -0.83892,-0.0257 -1.49806,-0.31997 -1.97743,-0.8827 -0.47939,-0.56273 -0.72369,-1.23955 -0.7329,-2.03045 l 0,-0.0369 c 0.009,-0.78129 0.24929,-1.44965 0.72137,-2.00509 0.47208,-0.55543 1.12277,-0.84582 1.95209,-0.87118 0.8389,0.0257 1.49804,0.31998 1.97743,0.8827 0.47937,0.56274 0.72367,1.23955 0.7329,2.03044 l 0,0.0369 c -0.009,0.7813 -0.24931,1.44966 -0.72138,2.00509 -0.47208,0.55544 -1.12278,0.84583 -1.95208,0.87118 z"
           inkscape:connector-curvature="0" />
        <path
           id="path4024"
           style="fill:#000000;font-family:Gotham Ultra;-inkscape-font-specification:Gotham Ultra"
           d="m 736.44697,829.17218 4.27752,0 0,-5.95535 4.79379,5.95535 3.83502,0 0,-12.90634 -4.27753,0 0,5.69723 -4.59097,-5.69723 -4.03783,0 z"
           inkscape:connector-curvature="0" />
        <path
           id="path4026"
           style="fill:#000000;font-family:Gotham Ultra;-inkscape-font-specification:Gotham Ultra"
           d="m 750.81553,829.17218 11.09945,0 0,-3.54002 -6.85879,0 0,-1.40126 6.30566,0 0,-3.11596 -6.30566,0 0,-1.30907 6.7666,0 0,-3.54003 -11.00726,0 z"
           inkscape:connector-curvature="0" />
      </g>
      <g
         id="text3042"
         style="font-size:18.43786049px;font-style:normal;font-variant:normal;font-weight:normal;font-stretch:normal;text-align:start;line-height:125%;letter-spacing:0px;word-spacing:0px;writing-mode:lr-tb;text-anchor:start;fill:#ff0000;fill-opacity:1;stroke:none;font-family:Gotham Ultra;-inkscape-font-specification:Gotham Ultra">
        <path
           id="path4009"
           d="m 722.27193,841.86218 7.1538,0 c 1.63441,-0.02 2.86896,-0.35799 3.70365,-1.01407 0.83468,-0.65607 1.25337,-1.51034 1.25607,-2.56283 l 0,-0.0369 c -0.01,-0.87502 -0.25737,-1.55874 -0.74212,-2.05119 -0.48476,-0.49243 -1.14698,-0.8535 -1.98665,-1.08321 0.701,-0.23699 1.25797,-0.59729 1.67091,-1.0809 0.41291,-0.4836 0.62418,-1.10664 0.63379,-1.86912 l 0,-0.0369 c -0.004,-0.44211 -0.0788,-0.83007 -0.22355,-1.16388 -0.14483,-0.33378 -0.33458,-0.61573 -0.56927,-0.84582 -0.37183,-0.37911 -0.85428,-0.6672 -1.44735,-0.86427 -0.59309,-0.19704 -1.33366,-0.29614 -2.22173,-0.2973 l -7.22755,0 z m 4.20378,-7.83599 0,-1.80688 1.8622,0 c 0.46093,0.001 0.80664,0.0772 1.03711,0.22816 0.23046,0.15097 0.3457,0.36991 0.34571,0.65684 l 0,0.0369 c 7.6e-4,0.28694 -0.1114,0.50589 -0.33649,0.65684 -0.2251,0.15096 -0.56773,0.22702 -1.0279,0.22816 z m 0,4.57253 0,-1.91751 2.17564,0 c 0.46976,0.005 0.82085,0.0922 1.05325,0.26274 0.23238,0.17055 0.34838,0.39641 0.34801,0.67758 l 0,0.0369 c -4e-4,0.28118 -0.11947,0.50704 -0.35723,0.67759 -0.23778,0.17055 -0.59194,0.25813 -1.06247,0.26273 z"
           inkscape:connector-curvature="0" />
        <path
           id="path4011"
           d="m 741.53999,842.12031 c 1.95323,0.0196 3.50429,-0.45287 4.65319,-1.41739 1.14888,-0.96452 1.73658,-2.53863 1.7631,-4.72234 l 0,-7.02473 -4.38815,0 0,7.15379 c -0.0104,0.77708 -0.19706,1.33866 -0.56005,1.68474 -0.36299,0.34609 -0.84007,0.51587 -1.43122,0.50934 -0.59116,0.005 -1.06823,-0.17554 -1.43122,-0.5416 -0.36299,-0.36606 -0.54967,-0.94762 -0.56004,-1.74466 l 0,-7.06161 -4.38815,0 0,7.11692 c 0.0234,2.1234 0.59883,3.66602 1.72622,4.62784 1.12738,0.96183 2.66615,1.43506 4.61632,1.4197 z"
           inkscape:connector-curvature="0" />
        <path
           id="path4013"
           d="m 752.61686,841.86218 4.3144,0 0,-9.25568 3.79815,0 0,-3.65065 -11.9107,0 0,3.65065 3.79815,0 z"
           inkscape:connector-curvature="0" />
        <path
           id="path4015"
           d="m 765.0048,841.86218 4.3144,0 0,-9.25568 3.79815,0 0,-3.65065 -11.9107,0 0,3.65065 3.79815,0 z"
           inkscape:connector-curvature="0" />
        <path
           id="path4017"
           d="m 780.82213,842.13875 c 2.03658,-0.0465 3.71133,-0.70025 5.02426,-1.96131 1.31289,-1.26105 1.99201,-2.85052 2.03735,-4.76843 l 0,-0.0369 c -0.0438,-1.91635 -0.71677,-3.49968 -2.01892,-4.74999 -1.30217,-1.25029 -2.97077,-1.89791 -5.00581,-1.94287 -2.0366,0.0465 -3.71134,0.70026 -5.02425,1.9613 -1.31292,1.26107 -1.99204,2.85055 -2.03736,4.76843 l 0,0.0369 c 0.0438,1.91636 0.71676,3.49969 2.01892,4.74999 1.30215,1.2503 2.97076,1.89792 5.00581,1.94287 z m 0.0369,-3.81659 c -0.83892,-0.0257 -1.49806,-0.31997 -1.97744,-0.8827 -0.47938,-0.56273 -0.72368,-1.23954 -0.73289,-2.03045 l 0,-0.0369 c 0.009,-0.78129 0.24929,-1.44965 0.72137,-2.00509 0.47207,-0.55543 1.12277,-0.84582 1.95208,-0.87118 0.83891,0.0258 1.49805,0.31998 1.97744,0.8827 0.47937,0.56274 0.72367,1.23955 0.73289,2.03044 l 0,0.0369 c -0.009,0.7813 -0.2493,1.44966 -0.72137,2.00509 -0.47209,0.55544 -1.12278,0.84583 -1.95208,0.87118 z"
           inkscape:connector-curvature="0" />
        <path
           id="path4019"
           d="m 789.07316,841.86218 4.27753,0 0,-5.95535 4.79378,5.95535 3.83503,0 0,-12.90633 -4.27753,0 0,5.69722 -4.59097,-5.69722 -4.03784,0 z"
           inkscape:connector-curvature="0" />
      </g>
      <g
         id="text3071"
         style="font-size:36.95534134px;font-style:normal;font-variant:normal;font-weight:normal;font-stretch:normal;text-align:start;line-height:125%;letter-spacing:0px;word-spacing:0px;writing-mode:lr-tb;text-anchor:start;fill:#ececec;fill-opacity:1;stroke:none;font-family:Gotham Ultra;-inkscape-font-specification:Gotham Ultra"
         transform="matrix(1.0485917,0,-1.0673915,-0.95366004,0,0)">
        <path
           id="path4029"
           d="m -227.60419,-911.18127 c 2.35354,-0.0185 4.4923,-0.37879 6.41628,-1.08093 1.92394,-0.70214 3.59153,-1.63525 5.00277,-2.79933 l 0,-11.97338 -12.5277,0 0,5.54323 4.43458,0 0,2.58684 c -0.32183,0.18632 -0.71294,0.33106 -1.17331,0.43422 -0.46042,0.10317 -1.05477,0.15553 -1.78308,0.15706 -1.84159,-0.0285 -3.32287,-0.59974 -4.44382,-1.71378 -1.12097,-1.11403 -1.69685,-2.59992 -1.72764,-4.45768 l 0,-0.0739 c 0.0316,-1.78999 0.57818,-3.24509 1.63987,-4.3653 1.06167,-1.12017 2.44902,-1.69759 4.16205,-1.73226 1.07013,0.004 2.08023,0.19942 3.03029,0.58666 0.95003,0.38728 1.84927,0.94314 2.69771,1.66759 l 4.84109,-5.83887 c -1.40277,-1.23026 -3.00415,-2.18801 -4.80414,-2.87324 -1.80003,-0.68518 -3.8079,-1.03317 -6.02364,-1.04397 -4.16744,0.0793 -7.56575,1.36196 -10.19492,3.84792 -2.62919,2.48601 -3.98574,5.69954 -4.06966,9.6406 l 0,0.0739 c 0.10163,4.06735 1.51515,7.30552 4.24057,9.71451 2.72542,2.409 6.15298,3.64236 10.2827,3.70011 z"
           inkscape:connector-curvature="0" />
        <path
           id="path4031"
           d="m -215.56001,-911.7356 9.23871,0 1.33038,-3.47375 9.05394,0 1.36733,3.47375 9.38653,0 -10.90168,-26.05318 -8.57353,0 z m 12.74942,-9.60826 2.36512,-6.28233 2.36511,6.28233 z"
           inkscape:connector-curvature="0" />
        <path
           id="path4033"
           d="m -184.08217,-911.7356 8.46267,0 0,-12.82333 5.94973,9.20176 0.14782,0 5.94973,-9.20176 0,12.82333 8.61048,0 0,-25.8684 -9.01698,0 -5.54323,9.0909 -5.54323,-9.0909 -9.01699,0 z"
           inkscape:connector-curvature="0" />
        <path
           id="path4035"
           d="m -152.03496,-911.7356 22.24683,0 0,-7.09533 -13.74721,0 0,-2.80857 12.63856,0 0,-6.24537 -12.63856,0 0,-2.6238 13.56244,0 0,-7.09533 -22.06206,0 z"
           inkscape:connector-curvature="0" />
      </g>
      <g
         id="text3046"
         style="font-size:38.19309616px;font-style:normal;font-variant:normal;font-weight:normal;font-stretch:normal;text-align:start;line-height:125%;letter-spacing:0px;word-spacing:0px;writing-mode:lr-tb;text-anchor:start;fill:#000000;fill-opacity:1;stroke:none;font-family:Gotham Ultra;-inkscape-font-specification:Gotham Ultra">
        <path
           id="path4000"
           d="m 736.98668,870.00831 c 2.43237,-0.0191 4.64277,-0.39147 6.63119,-1.11713 1.98838,-0.72566 3.71182,-1.69002 5.17032,-2.89309 l 0,-12.3744 -12.94729,0 0,5.72889 4.58311,0 0,2.67348 c -0.33261,0.19256 -0.73681,0.34215 -1.21261,0.44876 -0.47584,0.10663 -1.0901,0.16074 -1.84279,0.16232 -1.90328,-0.0294 -3.43417,-0.61983 -4.59267,-1.77118 -1.15852,-1.15134 -1.75368,-2.687 -1.7855,-4.60698 l 0,-0.0764 c 0.0326,-1.84994 0.59755,-3.35377 1.6948,-4.5115 1.09723,-1.1577 2.53104,-1.75445 4.30144,-1.79028 1.10598,0.004 2.14991,0.2061 3.13179,0.60631 0.98185,0.40024 1.9112,0.97472 2.78806,1.72344 l 5.00323,-6.03443 c -1.44975,-1.27147 -3.10476,-2.2613 -4.96503,-2.96948 -1.86032,-0.70812 -3.93545,-1.06777 -6.2254,-1.07894 -4.30702,0.082 -7.81915,1.40759 -10.53638,3.97681 -2.71725,2.56927 -4.11924,5.89043 -4.20596,9.96349 l 0,0.0764 c 0.10503,4.20358 1.56589,7.5502 4.3826,10.03988 2.81669,2.48968 6.35905,3.76436 10.62709,3.82403 z"
           inkscape:connector-curvature="0" />
        <path
           id="path4002"
           d="m 749.43426,869.43542 9.54815,0 1.37493,-3.5901 9.35719,0 1.41313,3.5901 9.70092,0 -11.26682,-26.92578 -8.86068,0 z m 13.17645,-9.93007 2.44432,-6.49275 2.44433,6.49275 z"
           inkscape:connector-curvature="0" />
        <path
           id="path4004"
           d="m 781.96639,869.43542 8.74611,0 0,-13.25283 6.14901,9.50996 0.15277,0 6.14901,-9.50996 0,13.25283 8.89888,0 0,-26.73482 -9.319,0 -5.72889,9.39538 -5.72889,-9.39538 -9.319,0 z"
           inkscape:connector-curvature="0" />
        <path
           id="path4006"
           d="m 815.08697,869.43542 22.99195,0 0,-7.33298 -14.20765,0 0,-2.90263 13.06187,0 0,-6.45455 -13.06187,0 0,-2.71168 14.01668,0 0,-7.33298 -22.80098,0 z"
           inkscape:connector-curvature="0" />
      </g>
      <path
         style="fill:#000000;fill-opacity:1;fill-rule:evenodd;stroke:none"
         d="m 666.39359,762.53147 4.76614,0 -1.63018,13.04392 -1.88198,0.1254 z"
         id="rect3062"
         inkscape:connector-curvature="0"
         sodipodi:nodetypes="ccccc" />
      <path
         style="fill:#000000;fill-opacity:1;fill-rule:evenodd;stroke:none"
         d="m 700.60001,772.53791 2.66034,3.95456 -11.12113,6.13403 -0.90476,-1.32121 z"
         id="rect3064"
         inkscape:connector-curvature="0"
         sodipodi:nodetypes="ccccc" />
      <path
         style="fill:#000000;fill-opacity:1;fill-rule:evenodd;stroke:none"
         d="m 634.69417,771.2921 -3.06739,3.95457 11.04416,6.1584 0.93574,-1.32115 z"
         id="rect3066"
         inkscape:connector-curvature="0"
         sodipodi:nodetypes="ccccc" />
    </g>
  </g>
</svg>
